<svg width="25" height="350" viewBox="0 0 25 350" fill="none" xmlns="http://www.w3.org/2000/svg">
<path d="M20.08 337.237C20.08 333.982 18.295 331.182 14.2 330.307L15.145 325.687C21.165 326.842 24.525 331.602 24.525 337.237C24.525 344.132 19.17 349.557 12.275 349.557C5.415 349.557 0.0249975 344.132 0.0249972 337.237C0.024997 331.602 3.42 326.877 9.055 325.687L10.35 330.307C6.29 331.182 4.505 333.982 4.505 337.237C4.505 341.437 7.83 344.762 12.275 344.762C16.72 344.762 20.08 341.437 20.08 337.237ZM24 300.235L24 305.38L18.995 307.41L18.995 317.77L24 319.835L24 324.98L0.549998 314.83L0.549998 310.385L24 300.235ZM14.69 309.195L6.325 312.59L14.69 316.02L14.69 309.195ZM11.89 282.734L12.03 282.734C12.275 280.809 14.165 278.639 17.49 278.639C21.305 278.639 24 280.984 24 286.199L24 297.784L0.549997 297.784L0.549997 286.234C0.549996 281.999 3.14 279.304 7.06 279.304C10.035 279.304 11.645 281.334 11.89 282.734ZM4.61 293.024L10.35 293.024L10.35 287.074C10.35 285.184 9.16 283.924 7.34 283.924C5.695 283.924 4.61 285.219 4.61 286.759L4.61 293.024ZM19.94 293.024L19.94 286.724C19.94 284.589 18.785 283.504 17.035 283.504C15.25 283.504 14.13 284.764 14.13 286.549L14.13 293.024L19.94 293.024ZM24 269.953L24 274.713L0.549996 274.713L0.549996 269.953L24 269.953ZM0.549995 243.305L24 243.305L24 247.295L8.95 260.28L24 260.28L24 265.04L0.549996 265.04L0.549995 261.05L16.02 248.065L0.549995 248.065L0.549995 243.305ZM19.695 220.599L24 220.599L24 238.414L0.549994 238.414L0.549994 220.669L4.85499 220.669L4.85499 233.654L10.14 233.654L10.14 221.684L14.375 221.684L14.375 233.654L19.695 233.654L19.695 220.599ZM4.85499 197.612L4.85499 205.417L24 205.417L24 210.177L4.85499 210.177L4.85499 217.982L0.549994 217.982L0.549993 197.612L4.85499 197.612ZM0.549992 185.318L0.549992 175.098C0.549992 170.093 3.52499 166.943 7.82999 166.943C12.135 166.943 15.11 170.093 15.11 175.098L15.11 182.553L24 182.553L24 185.318L0.549992 185.318ZM12.625 182.553L12.625 175.098C12.625 171.738 10.63 169.673 7.82999 169.673C5.02999 169.673 3.03499 171.738 3.03499 175.098L3.03499 182.553L12.625 182.553ZM21.48 145.406L24 145.406L24 162.521L0.549991 162.521L0.54999 145.441L3.03499 145.441L3.03499 159.756L10.98 159.756L10.98 146.456L13.465 146.456L13.465 159.756L21.48 159.756L21.48 145.406ZM24 120.74L24 124.205L13.955 133.165L13.955 137.47L24 137.47L24 140.235L0.54999 140.235L0.54999 129.385C0.54999 124.8 3.20999 121.72 7.23499 121.72C11.26 121.72 13.955 124.8 13.955 129.385L13.955 129.805L24 120.74ZM11.435 137.47L11.435 129.385C11.435 126.445 9.75499 124.485 7.23499 124.485C4.71499 124.485 3.03499 126.445 3.03499 129.385L3.03499 137.47L11.435 137.47ZM0.0949884 109.086C0.0949882 104.396 2.68499 101.106 6.53499 100.301L7.16499 103.066C4.32999 103.591 2.50999 105.936 2.50999 109.156C2.50999 112.306 4.22499 114.476 6.74499 114.476C8.84499 114.476 9.78999 113.146 10.245 110.941L11.4 105.831C12.1 102.576 13.745 99.9157 17.49 99.9157C21.76 99.9157 24.455 103.381 24.455 108.631C24.455 113.601 21.9 117.591 17.455 118.151L16.86 115.246C20.15 114.721 22.005 112.026 22.005 108.386C22.005 104.816 20.22 102.681 17.63 102.681C15.425 102.681 14.55 103.871 13.955 106.496L12.8 111.781C12.135 114.791 10.56 117.416 6.81499 117.416C2.78999 117.416 0.0949887 114.091 0.0949884 109.086ZM0.0949873 84.0599C0.0949871 77.2699 5.48499 71.9499 12.275 71.9499C19.1 71.9499 24.455 77.2699 24.455 84.0599C24.455 90.8849 19.1 96.2049 12.275 96.2049C5.48499 96.2049 0.0949876 90.8849 0.0949873 84.0599ZM21.83 84.0599C21.83 78.8449 17.7 74.7499 12.275 74.7499C6.88499 74.7499 2.68499 78.8449 2.68499 84.0599C2.68499 89.3099 6.88499 93.4049 12.275 93.4049C17.7 93.4049 21.83 89.3099 21.83 84.0599ZM0.549986 46.4792L24 46.4792L24 48.8592L5.37999 64.1892L24 64.1892L24 66.9542L0.549987 66.9542L0.549987 64.5742L19.38 49.2442L0.549986 49.2442L0.549986 46.4792ZM24 19.9134L24 22.8884L18.05 25.5134L18.05 37.8684L24 40.4934L24 43.4684L0.549986 32.9684L0.549985 30.4134L24 19.9134ZM15.565 26.5984L3.97999 31.6734L15.565 36.7834L15.565 26.5984ZM21.48 0.26578L24 0.26578L24 16.4708L0.549985 16.4708L0.549985 13.7058L21.48 13.7058L21.48 0.26578Z" fill="black" fill-opacity="0.7"/>
</svg>
